<?xml version="1.0" standalone="no"?>
<!DOCTYPE svg PUBLIC "-//W3C//DTD SVG 20010904//EN"
 "http://www.w3.org/TR/2001/REC-SVG-20010904/DTD/svg10.dtd">
<svg version="1.0" xmlns="http://www.w3.org/2000/svg"
 width="700.000000pt" height="700.000000pt" viewBox="0 0 700.000000 700.000000"
 preserveAspectRatio="xMidYMid meet">
<metadata>
Created by potrace 1.11, written by Peter Selinger 2001-2013
</metadata>
<g transform="translate(0.000000,700.000000) scale(0.100000,-0.100000)"
fill="#000000" stroke="none">
<path d="M302 6765 c-120 -22 -212 -93 -265 -205 -49 -103 -45 -221 10 -326
46 -86 148 -161 249 -181 21 -5 159 -8 307 -8 296 0 273 6 282 -69 3 -19 12
-75 20 -123 9 -49 18 -104 21 -123 3 -19 16 -98 29 -175 14 -77 27 -158 30
-180 3 -22 8 -51 11 -65 3 -13 8 -40 10 -60 2 -19 7 -46 9 -60 3 -14 8 -41 10
-60 3 -19 8 -44 10 -56 3 -12 7 -39 11 -60 3 -21 12 -77 20 -124 8 -47 17
-101 20 -120 3 -19 16 -98 29 -175 14 -77 27 -158 30 -180 3 -22 8 -51 11 -65
3 -14 8 -43 10 -65 3 -22 7 -47 10 -56 2 -9 7 -34 10 -55 2 -22 7 -50 9 -64 3
-14 8 -41 11 -60 3 -19 7 -42 9 -50 2 -8 7 -35 10 -60 3 -25 10 -67 15 -95 5
-27 12 -68 15 -90 14 -86 17 -103 31 -180 8 -44 17 -102 20 -130 4 -27 8 -53
10 -56 2 -4 6 -26 9 -50 3 -24 7 -55 10 -69 3 -14 8 -41 10 -60 3 -19 8 -44
10 -56 3 -12 7 -39 11 -60 3 -21 12 -77 20 -124 8 -47 17 -101 20 -120 3 -19
7 -46 10 -60 2 -14 7 -41 9 -60 3 -19 8 -46 11 -60 3 -13 7 -40 10 -60 2 -19
6 -42 9 -50 2 -8 7 -35 10 -60 3 -25 7 -56 10 -70 3 -14 12 -68 21 -120 8 -52
17 -106 20 -120 2 -14 7 -41 10 -60 3 -19 7 -42 9 -50 2 -8 7 -35 10 -59 15
-108 85 -222 170 -276 105 -68 -60 -63 2211 -61 l2059 1 56 23 c150 60 239
204 226 368 -12 154 -128 291 -272 320 -22 5 -43 9 -47 10 -5 1 -846 2 -1871
3 -1851 1 -1863 1 -1864 21 -1 11 -14 90 -28 176 -14 86 -24 158 -21 161 3 3
937 5 2076 5 1672 0 2081 3 2121 13 151 40 254 161 275 322 2 20 6 48 9 62 2
14 7 46 10 71 3 25 10 72 15 105 10 69 19 127 25 180 3 21 7 50 10 65 3 15 7
42 9 61 3 19 8 57 11 84 4 28 13 91 20 140 21 136 25 162 30 208 3 23 7 53 10
66 2 14 7 45 10 70 3 25 7 57 10 70 2 14 7 47 10 75 3 28 7 58 10 66 2 8 6 38
10 65 3 28 8 61 10 75 2 14 11 77 20 140 9 63 18 126 20 140 3 14 7 48 10 75
3 28 8 57 10 65 2 8 7 36 10 62 3 26 10 80 15 120 6 40 13 91 16 113 3 22 9
65 14 95 5 30 12 78 16 105 3 28 9 68 13 90 8 43 7 166 -2 201 -31 123 -156
238 -287 262 -25 4 -1180 8 -2567 8 l-2521 -1 -7 40 c-4 22 -9 51 -11 65 -1
14 -10 66 -19 115 -9 50 -20 118 -26 152 -25 170 -107 281 -246 333 -55 20
-75 21 -501 23 -273 1 -465 -2 -500 -8z m2698 -1811 l0 -364 -559 0 c-308 0
-566 -2 -574 -6 -11 -4 -16 7 -20 43 -4 26 -8 57 -10 68 -3 11 -8 42 -11 68
-4 27 -9 56 -11 65 -3 16 -30 174 -39 232 -3 14 -12 70 -21 125 -9 55 -18 107
-21 116 -4 15 51 16 631 17 l635 0 0 -364z m1455 8 c0 -195 -3 -358 -6 -363
-3 -5 -227 -8 -545 -7 l-539 3 0 361 -1 361 545 -1 545 -1 1 -353z m1748 351
c11 -3 16 -11 13 -21 -3 -9 -8 -35 -11 -57 -3 -23 -7 -50 -9 -60 -2 -11 -7
-47 -11 -80 -4 -32 -8 -66 -10 -75 -1 -8 -6 -37 -9 -65 -4 -27 -11 -77 -16
-110 -5 -33 -12 -80 -15 -105 -4 -25 -9 -61 -12 -80 -3 -19 -6 -42 -8 -50 -2
-13 -82 -15 -650 -15 l-647 0 0 330 c1 182 1 344 1 361 l1 32 683 0 c375 0
690 -2 700 -5z m-3203 -1449 l0 -364 -484 0 -484 0 -7 57 c-7 60 -8 63 -20
128 -4 22 -9 51 -11 65 -2 14 -7 41 -10 60 -4 19 -8 44 -10 55 -8 51 -13 83
-19 120 -3 22 -8 51 -11 65 -2 14 -7 43 -10 65 -3 22 -9 56 -13 76 l-8 36 543
1 544 0 0 -364z m1455 1 l0 -360 -546 -3 -545 -2 2 357 c0 197 2 361 3 365 0
3 245 6 543 5 l542 -2 1 -360z m1605 357 c0 -6 -11 -85 -24 -172 -3 -19 -19
-129 -36 -245 -16 -115 -31 -223 -34 -240 -2 -16 -5 -38 -5 -47 -1 -17 -35
-18 -571 -18 -449 0 -570 3 -571 13 0 15 0 592 0 663 l1 52 620 0 c341 0 620
-3 620 -6z"/>
<path d="M2322 1299 c-410 -105 -550 -612 -251 -909 208 -207 541 -215 751
-17 90 85 136 165 164 283 50 217 -47 451 -240 576 -120 77 -284 103 -424 67z"/>
<path d="M5606 1304 c-204 -48 -368 -215 -411 -419 -36 -176 17 -362 141 -488
109 -112 215 -158 374 -163 166 -5 287 42 399 155 108 108 161 235 161 383 0
294 -229 533 -520 542 -47 2 -111 -3 -144 -10z"/>
</g>
</svg>
